<mxfile host="app.diagrams.net" modified="2021-11-09T07:35:06.488Z" agent="5.0 (X11; Linux x86_64) AppleWebKit/537.36 (KHTML, like Gecko) Chrome/86.0.4240.111 Safari/537.36 OPR/72.0.3815.186" etag="dWT7z1WVgETH1rkC3COE" version="15.3.6" type="github">
  <diagram id="UJtxpVlwz8Y8kRIiph7c" name="Page-1">
    <mxGraphModel dx="1803" dy="521" grid="1" gridSize="10" guides="1" tooltips="1" connect="1" arrows="1" fold="1" page="1" pageScale="1" pageWidth="850" pageHeight="1100" math="0" shadow="0">
      <root>
        <mxCell id="0" />
        <mxCell id="1" parent="0" />
        <mxCell id="pbNcbMadCfczwUk0kH63-1" value="" style="rounded=1;whiteSpace=wrap;html=1;hachureGap=4;pointerEvents=0;" parent="1" vertex="1">
          <mxGeometry x="-160" y="160" width="770" height="860" as="geometry" />
        </mxCell>
        <mxCell id="pbNcbMadCfczwUk0kH63-3" value="انتخاب پلن" style="text;html=1;strokeColor=none;fillColor=none;align=center;verticalAlign=middle;whiteSpace=wrap;rounded=0;hachureGap=4;pointerEvents=0;" parent="1" vertex="1">
          <mxGeometry x="445" y="200" width="160" height="20" as="geometry" />
        </mxCell>
        <mxCell id="pbNcbMadCfczwUk0kH63-5" value="" style="rounded=1;whiteSpace=wrap;html=1;hachureGap=4;pointerEvents=0;" parent="1" vertex="1">
          <mxGeometry x="250" y="270" width="320" height="180" as="geometry" />
        </mxCell>
        <mxCell id="pbNcbMadCfczwUk0kH63-6" value="شرایط نمایش sku" style="text;html=1;strokeColor=none;fillColor=none;align=right;verticalAlign=middle;whiteSpace=wrap;rounded=0;hachureGap=4;pointerEvents=0;" parent="1" vertex="1">
          <mxGeometry x="445" y="246" width="105" height="20" as="geometry" />
        </mxCell>
        <mxCell id="pbNcbMadCfczwUk0kH63-7" value="نوع مارکت" style="text;html=1;strokeColor=none;fillColor=none;align=center;verticalAlign=middle;whiteSpace=wrap;rounded=0;hachureGap=4;pointerEvents=0;" parent="1" vertex="1">
          <mxGeometry x="480" y="289" width="70" height="20" as="geometry" />
        </mxCell>
        <mxCell id="pbNcbMadCfczwUk0kH63-9" value="" style="group" parent="1" vertex="1" connectable="0">
          <mxGeometry x="370" y="200" width="120" height="20" as="geometry" />
        </mxCell>
        <mxCell id="pbNcbMadCfczwUk0kH63-2" value="یک ماه" style="rounded=1;whiteSpace=wrap;html=1;hachureGap=4;pointerEvents=0;" parent="pbNcbMadCfczwUk0kH63-9" vertex="1">
          <mxGeometry x="1" width="120" height="20" as="geometry" />
        </mxCell>
        <mxCell id="pbNcbMadCfczwUk0kH63-4" value="" style="triangle;whiteSpace=wrap;html=1;hachureGap=4;pointerEvents=0;rotation=90;fillColor=#647687;strokeColor=#314354;fontColor=#ffffff;" parent="pbNcbMadCfczwUk0kH63-9" vertex="1">
          <mxGeometry x="5" y="5" width="10" height="10" as="geometry" />
        </mxCell>
        <mxCell id="pbNcbMadCfczwUk0kH63-13" value="" style="group" parent="1" vertex="1" connectable="0">
          <mxGeometry x="350" y="320" width="190" height="21" as="geometry" />
        </mxCell>
        <mxCell id="pbNcbMadCfczwUk0kH63-11" value="کاربر قبلا پرداخت داشته&amp;nbsp;" style="text;html=1;strokeColor=none;fillColor=none;align=center;verticalAlign=middle;whiteSpace=wrap;rounded=0;hachureGap=4;pointerEvents=0;" parent="pbNcbMadCfczwUk0kH63-13" vertex="1">
          <mxGeometry x="70" width="140" height="20" as="geometry" />
        </mxCell>
        <mxCell id="pbNcbMadCfczwUk0kH63-12" value="" style="rounded=1;whiteSpace=wrap;html=1;hachureGap=4;pointerEvents=0;" parent="pbNcbMadCfczwUk0kH63-13" vertex="1">
          <mxGeometry x="60" y="5.5" width="10" height="10" as="geometry" />
        </mxCell>
        <mxCell id="pbNcbMadCfczwUk0kH63-14" value="" style="group" parent="1" vertex="1" connectable="0">
          <mxGeometry x="350" y="344" width="190" height="21" as="geometry" />
        </mxCell>
        <mxCell id="pbNcbMadCfczwUk0kH63-15" value="کاربر اشتراک رو به پایان" style="text;html=1;strokeColor=none;fillColor=none;align=center;verticalAlign=middle;whiteSpace=wrap;rounded=0;hachureGap=4;pointerEvents=0;" parent="pbNcbMadCfczwUk0kH63-14" vertex="1">
          <mxGeometry x="70" width="140" height="20" as="geometry" />
        </mxCell>
        <mxCell id="pbNcbMadCfczwUk0kH63-16" value="" style="rounded=1;whiteSpace=wrap;html=1;hachureGap=4;pointerEvents=0;" parent="pbNcbMadCfczwUk0kH63-14" vertex="1">
          <mxGeometry x="60" y="5.5" width="10" height="10" as="geometry" />
        </mxCell>
        <mxCell id="pbNcbMadCfczwUk0kH63-17" value="" style="group" parent="1" vertex="1" connectable="0">
          <mxGeometry x="350" y="368" width="190" height="21" as="geometry" />
        </mxCell>
        <mxCell id="pbNcbMadCfczwUk0kH63-18" value="کاربر جدید" style="text;html=1;strokeColor=none;fillColor=none;align=center;verticalAlign=middle;whiteSpace=wrap;rounded=0;hachureGap=4;pointerEvents=0;" parent="pbNcbMadCfczwUk0kH63-17" vertex="1">
          <mxGeometry x="70" width="140" height="20" as="geometry" />
        </mxCell>
        <mxCell id="pbNcbMadCfczwUk0kH63-19" value="" style="rounded=1;whiteSpace=wrap;html=1;hachureGap=4;pointerEvents=0;arcSize=0;" parent="pbNcbMadCfczwUk0kH63-17" vertex="1">
          <mxGeometry x="60" y="5.5" width="10" height="10" as="geometry" />
        </mxCell>
        <mxCell id="pbNcbMadCfczwUk0kH63-20" value="" style="group" parent="1" vertex="1" connectable="0">
          <mxGeometry x="360" y="290" width="120" height="20" as="geometry" />
        </mxCell>
        <mxCell id="pbNcbMadCfczwUk0kH63-21" value="اندروید" style="rounded=1;whiteSpace=wrap;html=1;hachureGap=4;pointerEvents=0;" parent="pbNcbMadCfczwUk0kH63-20" vertex="1">
          <mxGeometry width="120" height="20" as="geometry" />
        </mxCell>
        <mxCell id="pbNcbMadCfczwUk0kH63-22" value="" style="triangle;whiteSpace=wrap;html=1;hachureGap=4;pointerEvents=0;rotation=90;fillColor=#647687;strokeColor=#314354;fontColor=#ffffff;" parent="pbNcbMadCfczwUk0kH63-20" vertex="1">
          <mxGeometry x="5" y="5" width="10" height="10" as="geometry" />
        </mxCell>
        <mxCell id="pbNcbMadCfczwUk0kH63-23" value="" style="rounded=1;whiteSpace=wrap;html=1;hachureGap=4;pointerEvents=0;" parent="1" vertex="1">
          <mxGeometry x="250" y="472" width="320" height="216" as="geometry" />
        </mxCell>
        <mxCell id="pbNcbMadCfczwUk0kH63-24" value="جزییات" style="text;html=1;strokeColor=none;fillColor=none;align=right;verticalAlign=middle;whiteSpace=wrap;rounded=0;hachureGap=4;pointerEvents=0;" parent="1" vertex="1">
          <mxGeometry x="445" y="452" width="105" height="20" as="geometry" />
        </mxCell>
        <mxCell id="pbNcbMadCfczwUk0kH63-40" value="" style="group" parent="1" vertex="1" connectable="0">
          <mxGeometry x="380" y="488" width="160" height="22" as="geometry" />
        </mxCell>
        <mxCell id="pbNcbMadCfczwUk0kH63-38" value="عنوان&amp;nbsp;" style="text;html=1;strokeColor=none;fillColor=none;align=center;verticalAlign=middle;whiteSpace=wrap;rounded=0;hachureGap=4;pointerEvents=0;" parent="pbNcbMadCfczwUk0kH63-40" vertex="1">
          <mxGeometry x="120" width="40" height="20" as="geometry" />
        </mxCell>
        <mxCell id="pbNcbMadCfczwUk0kH63-39" value="" style="rounded=1;whiteSpace=wrap;html=1;hachureGap=4;pointerEvents=0;" parent="pbNcbMadCfczwUk0kH63-40" vertex="1">
          <mxGeometry y="2" width="120" height="20" as="geometry" />
        </mxCell>
        <mxCell id="pbNcbMadCfczwUk0kH63-41" value="" style="group" parent="1" vertex="1" connectable="0">
          <mxGeometry x="380" y="518" width="160" height="22" as="geometry" />
        </mxCell>
        <mxCell id="pbNcbMadCfczwUk0kH63-42" value="قیمت اولیه" style="text;html=1;strokeColor=none;fillColor=none;align=center;verticalAlign=middle;whiteSpace=wrap;rounded=0;hachureGap=4;pointerEvents=0;" parent="pbNcbMadCfczwUk0kH63-41" vertex="1">
          <mxGeometry x="120" width="40" height="20" as="geometry" />
        </mxCell>
        <mxCell id="pbNcbMadCfczwUk0kH63-43" value="" style="rounded=1;whiteSpace=wrap;html=1;hachureGap=4;pointerEvents=0;" parent="pbNcbMadCfczwUk0kH63-41" vertex="1">
          <mxGeometry y="2" width="120" height="20" as="geometry" />
        </mxCell>
        <mxCell id="pbNcbMadCfczwUk0kH63-53" value="" style="rounded=1;whiteSpace=wrap;html=1;hachureGap=4;pointerEvents=0;" parent="1" vertex="1">
          <mxGeometry x="-120" y="270" width="320" height="340" as="geometry" />
        </mxCell>
        <mxCell id="pbNcbMadCfczwUk0kH63-54" value="ویژگی ها" style="text;html=1;strokeColor=none;fillColor=none;align=right;verticalAlign=middle;whiteSpace=wrap;rounded=0;hachureGap=4;pointerEvents=0;" parent="1" vertex="1">
          <mxGeometry x="75" y="246" width="105" height="20" as="geometry" />
        </mxCell>
        <mxCell id="pbNcbMadCfczwUk0kH63-55" value="" style="group" parent="1" vertex="1" connectable="0">
          <mxGeometry x="10" y="286" width="160" height="22" as="geometry" />
        </mxCell>
        <mxCell id="pbNcbMadCfczwUk0kH63-56" value="انتخاب ویژگی ها" style="text;html=1;strokeColor=none;fillColor=none;align=center;verticalAlign=middle;whiteSpace=wrap;rounded=0;hachureGap=4;pointerEvents=0;" parent="pbNcbMadCfczwUk0kH63-55" vertex="1">
          <mxGeometry x="65" y="-1" width="100" height="20" as="geometry" />
        </mxCell>
        <mxCell id="pbNcbMadCfczwUk0kH63-64" value="" style="group" parent="1" vertex="1" connectable="0">
          <mxGeometry x="-44" y="287" width="120" height="20" as="geometry" />
        </mxCell>
        <mxCell id="pbNcbMadCfczwUk0kH63-65" value="ویژگی پلن کامل" style="rounded=1;whiteSpace=wrap;html=1;hachureGap=4;pointerEvents=0;" parent="pbNcbMadCfczwUk0kH63-64" vertex="1">
          <mxGeometry width="120" height="20" as="geometry" />
        </mxCell>
        <mxCell id="pbNcbMadCfczwUk0kH63-66" value="" style="triangle;whiteSpace=wrap;html=1;hachureGap=4;pointerEvents=0;rotation=90;fillColor=#647687;strokeColor=#314354;fontColor=#ffffff;" parent="pbNcbMadCfczwUk0kH63-64" vertex="1">
          <mxGeometry x="5" y="5" width="10" height="10" as="geometry" />
        </mxCell>
        <mxCell id="pbNcbMadCfczwUk0kH63-67" value="" style="rounded=1;whiteSpace=wrap;html=1;hachureGap=4;pointerEvents=0;" parent="1" vertex="1">
          <mxGeometry x="-70" y="367" width="240" height="183" as="geometry" />
        </mxCell>
        <mxCell id="pbNcbMadCfczwUk0kH63-68" value="ایجاد مجموعه ویژگی جدید" style="text;html=1;strokeColor=none;fillColor=none;align=center;verticalAlign=middle;whiteSpace=wrap;rounded=0;hachureGap=4;pointerEvents=0;" parent="1" vertex="1">
          <mxGeometry x="30" y="341" width="140" height="20" as="geometry" />
        </mxCell>
        <mxCell id="pbNcbMadCfczwUk0kH63-69" value="" style="group" parent="1" vertex="1" connectable="0">
          <mxGeometry x="2" y="374" width="160" height="22" as="geometry" />
        </mxCell>
        <mxCell id="pbNcbMadCfczwUk0kH63-70" value="عنوان&amp;nbsp;" style="text;html=1;strokeColor=none;fillColor=none;align=center;verticalAlign=middle;whiteSpace=wrap;rounded=0;hachureGap=4;pointerEvents=0;" parent="pbNcbMadCfczwUk0kH63-69" vertex="1">
          <mxGeometry x="120" width="40" height="20" as="geometry" />
        </mxCell>
        <mxCell id="pbNcbMadCfczwUk0kH63-71" value="" style="rounded=1;whiteSpace=wrap;html=1;hachureGap=4;pointerEvents=0;" parent="pbNcbMadCfczwUk0kH63-69" vertex="1">
          <mxGeometry y="2" width="120" height="20" as="geometry" />
        </mxCell>
        <mxCell id="pbNcbMadCfczwUk0kH63-72" value="" style="group" parent="1" vertex="1" connectable="0">
          <mxGeometry x="-30" y="421" width="180" height="22" as="geometry" />
        </mxCell>
        <mxCell id="pbNcbMadCfczwUk0kH63-73" value="نام ویژگی" style="text;html=1;strokeColor=none;fillColor=none;align=center;verticalAlign=middle;whiteSpace=wrap;rounded=0;hachureGap=4;pointerEvents=0;" parent="pbNcbMadCfczwUk0kH63-72" vertex="1">
          <mxGeometry x="130" y="2" width="60" height="20" as="geometry" />
        </mxCell>
        <mxCell id="pbNcbMadCfczwUk0kH63-74" value="" style="rounded=1;whiteSpace=wrap;html=1;hachureGap=4;pointerEvents=0;" parent="pbNcbMadCfczwUk0kH63-72" vertex="1">
          <mxGeometry x="10" y="2" width="120" height="20" as="geometry" />
        </mxCell>
        <mxCell id="pbNcbMadCfczwUk0kH63-76" value="" style="shape=image;html=1;verticalAlign=top;verticalLabelPosition=bottom;labelBackgroundColor=#ffffff;imageAspect=0;aspect=fixed;image=https://cdn1.iconfinder.com/data/icons/feather-2/24/plus-circle-128.png;hachureGap=4;pointerEvents=0;" parent="1" vertex="1">
          <mxGeometry x="-57" y="421" width="27" height="27" as="geometry" />
        </mxCell>
        <mxCell id="pbNcbMadCfczwUk0kH63-77" value="" style="rounded=1;whiteSpace=wrap;html=1;hachureGap=4;pointerEvents=0;" parent="1" vertex="1">
          <mxGeometry x="250" y="744" width="320" height="186" as="geometry" />
        </mxCell>
        <mxCell id="pbNcbMadCfczwUk0kH63-78" value="طراحی" style="text;html=1;strokeColor=none;fillColor=none;align=right;verticalAlign=middle;whiteSpace=wrap;rounded=0;hachureGap=4;pointerEvents=0;" parent="1" vertex="1">
          <mxGeometry x="445" y="720" width="105" height="20" as="geometry" />
        </mxCell>
        <mxCell id="pbNcbMadCfczwUk0kH63-79" value="" style="group" parent="1" vertex="1" connectable="0">
          <mxGeometry x="380" y="760" width="160" height="22" as="geometry" />
        </mxCell>
        <mxCell id="pbNcbMadCfczwUk0kH63-80" value="عکس اصلی" style="text;html=1;strokeColor=none;fillColor=none;align=center;verticalAlign=middle;whiteSpace=wrap;rounded=0;hachureGap=4;pointerEvents=0;" parent="pbNcbMadCfczwUk0kH63-79" vertex="1">
          <mxGeometry x="120" width="40" height="20" as="geometry" />
        </mxCell>
        <mxCell id="pbNcbMadCfczwUk0kH63-81" value="" style="rounded=1;whiteSpace=wrap;html=1;hachureGap=4;pointerEvents=0;" parent="pbNcbMadCfczwUk0kH63-79" vertex="1">
          <mxGeometry y="2" width="120" height="20" as="geometry" />
        </mxCell>
        <mxCell id="e3WY6LY0C-HeUT9z7fmk-2" value="برچسب" style="text;html=1;strokeColor=none;fillColor=none;align=center;verticalAlign=middle;whiteSpace=wrap;rounded=0;hachureGap=4;pointerEvents=0;" parent="1" vertex="1">
          <mxGeometry x="500" y="806" width="40" height="20" as="geometry" />
        </mxCell>
        <mxCell id="e3WY6LY0C-HeUT9z7fmk-15" value="نام برچسب جدید" style="rounded=1;whiteSpace=wrap;html=1;hachureGap=4;pointerEvents=0;" parent="1" vertex="1">
          <mxGeometry x="377" y="806" width="120" height="20" as="geometry" />
        </mxCell>
        <mxCell id="e3WY6LY0C-HeUT9z7fmk-16" value="" style="shape=image;html=1;verticalAlign=top;verticalLabelPosition=bottom;labelBackgroundColor=#ffffff;imageAspect=0;aspect=fixed;image=https://cdn4.iconfinder.com/data/icons/ionicons/512/icon-plus-circled-128.png;hachureGap=4;pointerEvents=0;" parent="1" vertex="1">
          <mxGeometry x="350" y="802.5" width="27" height="27" as="geometry" />
        </mxCell>
        <mxCell id="e3WY6LY0C-HeUT9z7fmk-3" value="&lt;font style=&quot;font-size: 6px&quot;&gt;برچسب یک&lt;/font&gt;" style="rounded=1;whiteSpace=wrap;html=1;hachureGap=4;pointerEvents=0;fillColor=#b0e3e6;strokeColor=#0e8088;" parent="1" vertex="1">
          <mxGeometry x="450" y="831" width="40" height="12" as="geometry" />
        </mxCell>
        <mxCell id="e3WY6LY0C-HeUT9z7fmk-17" value="&lt;font style=&quot;font-size: 6px&quot;&gt;برچسب یک&lt;/font&gt;" style="rounded=1;whiteSpace=wrap;html=1;hachureGap=4;pointerEvents=0;fillColor=#b0e3e6;strokeColor=#0e8088;" parent="1" vertex="1">
          <mxGeometry x="405" y="831" width="40" height="12" as="geometry" />
        </mxCell>
        <mxCell id="e3WY6LY0C-HeUT9z7fmk-18" value="ایجاد&amp;nbsp;" style="rounded=1;whiteSpace=wrap;html=1;hachureGap=4;pointerEvents=0;fillColor=#b0e3e6;strokeColor=#0e8088;" parent="1" vertex="1">
          <mxGeometry x="-5" y="530" width="90" height="40" as="geometry" />
        </mxCell>
        <mxCell id="7VfxaspDLNqbCYA4LbdU-1" value="اضافه کردن پلن جدید" style="rounded=1;whiteSpace=wrap;html=1;hachureGap=4;pointerEvents=0;fillColor=#b0e3e6;strokeColor=#0e8088;" vertex="1" parent="1">
          <mxGeometry x="265" y="192.5" width="95" height="35" as="geometry" />
        </mxCell>
        <mxCell id="7VfxaspDLNqbCYA4LbdU-3" value="" style="rounded=1;whiteSpace=wrap;html=1;hachureGap=4;pointerEvents=0;" vertex="1" parent="1">
          <mxGeometry x="-110" y="744" width="320" height="186" as="geometry" />
        </mxCell>
        <mxCell id="7VfxaspDLNqbCYA4LbdU-4" value="پروموشن" style="text;html=1;strokeColor=none;fillColor=none;align=right;verticalAlign=middle;whiteSpace=wrap;rounded=0;hachureGap=4;pointerEvents=0;" vertex="1" parent="1">
          <mxGeometry x="85" y="720" width="105" height="20" as="geometry" />
        </mxCell>
        <mxCell id="7VfxaspDLNqbCYA4LbdU-5" value="" style="group" vertex="1" connectable="0" parent="1">
          <mxGeometry x="20" y="760" width="160" height="22" as="geometry" />
        </mxCell>
        <mxCell id="7VfxaspDLNqbCYA4LbdU-6" value="عکس اصلی" style="text;html=1;strokeColor=none;fillColor=none;align=center;verticalAlign=middle;whiteSpace=wrap;rounded=0;hachureGap=4;pointerEvents=0;" vertex="1" parent="7VfxaspDLNqbCYA4LbdU-5">
          <mxGeometry x="120" width="40" height="20" as="geometry" />
        </mxCell>
        <mxCell id="7VfxaspDLNqbCYA4LbdU-7" value="" style="rounded=1;whiteSpace=wrap;html=1;hachureGap=4;pointerEvents=0;" vertex="1" parent="7VfxaspDLNqbCYA4LbdU-5">
          <mxGeometry y="2" width="120" height="20" as="geometry" />
        </mxCell>
        <mxCell id="7VfxaspDLNqbCYA4LbdU-8" value="برچسب" style="text;html=1;strokeColor=none;fillColor=none;align=center;verticalAlign=middle;whiteSpace=wrap;rounded=0;hachureGap=4;pointerEvents=0;" vertex="1" parent="1">
          <mxGeometry x="140" y="806" width="40" height="20" as="geometry" />
        </mxCell>
        <mxCell id="7VfxaspDLNqbCYA4LbdU-9" value="نام برچسب جدید" style="rounded=1;whiteSpace=wrap;html=1;hachureGap=4;pointerEvents=0;" vertex="1" parent="1">
          <mxGeometry x="17" y="806" width="120" height="20" as="geometry" />
        </mxCell>
        <mxCell id="7VfxaspDLNqbCYA4LbdU-10" value="" style="shape=image;html=1;verticalAlign=top;verticalLabelPosition=bottom;labelBackgroundColor=#ffffff;imageAspect=0;aspect=fixed;image=https://cdn4.iconfinder.com/data/icons/ionicons/512/icon-plus-circled-128.png;hachureGap=4;pointerEvents=0;" vertex="1" parent="1">
          <mxGeometry x="-10" y="802.5" width="27" height="27" as="geometry" />
        </mxCell>
        <mxCell id="7VfxaspDLNqbCYA4LbdU-11" value="&lt;font style=&quot;font-size: 6px&quot;&gt;برچسب یک&lt;/font&gt;" style="rounded=1;whiteSpace=wrap;html=1;hachureGap=4;pointerEvents=0;fillColor=#b0e3e6;strokeColor=#0e8088;" vertex="1" parent="1">
          <mxGeometry x="90" y="831" width="40" height="12" as="geometry" />
        </mxCell>
        <mxCell id="7VfxaspDLNqbCYA4LbdU-12" value="&lt;font style=&quot;font-size: 6px&quot;&gt;برچسب یک&lt;/font&gt;" style="rounded=1;whiteSpace=wrap;html=1;hachureGap=4;pointerEvents=0;fillColor=#b0e3e6;strokeColor=#0e8088;" vertex="1" parent="1">
          <mxGeometry x="45" y="831" width="40" height="12" as="geometry" />
        </mxCell>
        <mxCell id="7VfxaspDLNqbCYA4LbdU-13" value="" style="group" vertex="1" connectable="0" parent="1">
          <mxGeometry x="322" y="400" width="207" height="30" as="geometry" />
        </mxCell>
        <mxCell id="e3WY6LY0C-HeUT9z7fmk-24" value="" style="rounded=1;whiteSpace=wrap;html=1;hachureGap=4;pointerEvents=0;fillColor=#b0e3e6;strokeColor=#0e8088;" parent="7VfxaspDLNqbCYA4LbdU-13" vertex="1">
          <mxGeometry width="207" height="30" as="geometry" />
        </mxCell>
        <mxCell id="e3WY6LY0C-HeUT9z7fmk-25" value="ریموت کانفیگ" style="text;html=1;strokeColor=none;fillColor=none;align=center;verticalAlign=middle;whiteSpace=wrap;rounded=0;hachureGap=4;pointerEvents=0;" parent="7VfxaspDLNqbCYA4LbdU-13" vertex="1">
          <mxGeometry x="63.5" y="10" width="80" height="10" as="geometry" />
        </mxCell>
      </root>
    </mxGraphModel>
  </diagram>
</mxfile>
